<svg width="136" height="173" viewBox="0 0 136 173" fill="none" xmlns="http://www.w3.org/2000/svg">
<path d="M64.0644 2.68554C64.4682 1.9587 64.9011 0.117386 65.8734 0.0656995C67.424 -0.0161367 68.9024 -0.0215207 70.3087 0.0495476C70.4634 0.057294 70.6132 0.105967 70.7426 0.190562C70.8721 0.275157 70.9765 0.392621 71.0452 0.530874C72.1543 2.78352 73.5197 5.36675 75.1414 8.28055C90.0722 35.1336 103.839 60.0237 116.442 82.9507C120.482 90.3031 124.266 97.103 127.793 103.351C129.632 106.605 131.432 109.835 133.191 113.042C133.396 113.414 133.572 113.819 133.721 114.256C133.728 114.277 133.73 114.299 133.728 114.32C133.726 114.341 133.719 114.362 133.708 114.38C133.697 114.399 133.681 114.414 133.664 114.426C133.646 114.437 133.626 114.444 133.605 114.447C133.096 114.516 132.614 114.55 132.158 114.55C122.753 114.559 113.487 114.548 104.36 114.518C104.204 114.517 104.052 114.474 103.919 114.395C103.786 114.315 103.677 114.201 103.604 114.066C100.68 108.667 97.7228 103.298 94.7336 97.959C91.8026 92.7258 88.8608 87.428 85.9082 82.0656C80.5975 72.4261 75.2189 62.6596 69.7725 52.7661C64.3067 42.8327 58.6794 32.98 53.1134 23.0595C53.0531 22.9531 53.0215 22.8327 53.0215 22.7099C53.0215 22.5871 53.0531 22.4661 53.1134 22.3585C56.7939 15.7664 60.4442 9.20874 64.0644 2.68554Z" fill="#F5D358"/>
<path d="M57.8523 68.1425C49.6601 82.9591 41.2988 98.0913 32.7685 113.539C32.1773 114.611 31.3762 114.524 30.294 114.527C21.5031 114.558 12.4053 114.552 3.00055 114.511C2.84334 114.511 2.68828 114.49 2.53537 114.447C2.50526 114.438 2.47769 114.423 2.45475 114.401C2.4318 114.38 2.41407 114.353 2.40288 114.322C2.39169 114.292 2.38733 114.259 2.39014 114.225C2.39295 114.192 2.40284 114.16 2.41908 114.13L42.9539 40.8652C43.0874 40.624 43.2198 40.625 43.3512 40.8684C47.7251 49.0219 52.2035 57.0213 56.7863 64.8669C57.2106 65.5948 57.5842 66.3388 57.9073 67.0991C57.9776 67.2652 58.0092 67.4454 57.9997 67.6261C57.9902 67.8068 57.9398 67.9834 57.8523 68.1425Z" fill="#EEBB1E"/>
<path d="M4.77402 139.085C4.66185 139.086 4.55326 139.124 4.46588 139.194C4.37851 139.264 4.31747 139.361 4.29269 139.47L3.52709 142.761C3.44957 143.093 3.24067 143.256 2.9004 143.249L0.429163 143.201C0.362428 143.199 0.29692 143.182 0.237616 143.152C0.178313 143.121 0.126773 143.078 0.0869127 143.024C0.0470522 142.971 0.0199195 142.909 0.00757564 142.844C-0.00476818 142.779 -0.00199845 142.712 0.0156746 142.648C1.71916 136.448 3.28051 130.184 4.69972 123.857C4.88062 123.05 5.90142 123.137 6.5055 123.13C7.35186 123.121 8.59556 122.962 9.37085 123.253C9.42178 123.271 9.46845 123.3 9.50793 123.338C9.5474 123.376 9.57882 123.422 9.6002 123.473C9.77464 123.899 9.9157 124.343 10.0234 124.804C11.3888 130.72 12.8553 136.719 14.4232 142.803C14.4748 142.999 14.4005 143.117 14.2003 143.155C13.3044 143.321 12.3783 143.273 11.4221 143.01C11.3015 142.976 11.2046 142.906 11.1314 142.8C10.9828 142.585 10.8784 142.354 10.8181 142.109C10.5898 141.165 10.3464 140.277 10.088 139.444C10.0554 139.336 9.98874 139.242 9.89797 139.175C9.80721 139.108 9.69714 139.072 9.58405 139.072L4.77402 139.085ZM5.38456 135.593C5.37487 135.637 5.37509 135.682 5.3852 135.725C5.39532 135.769 5.41506 135.809 5.44298 135.844C5.4709 135.879 5.50628 135.907 5.54649 135.926C5.5867 135.945 5.63072 135.955 5.67529 135.955L8.84106 135.932C8.88605 135.932 8.93041 135.922 8.97081 135.902C9.0112 135.882 9.04657 135.853 9.07426 135.818C9.10194 135.782 9.12121 135.741 9.13062 135.697C9.14003 135.653 9.13933 135.608 9.12857 135.564L7.49723 128.754C7.48139 128.689 7.44411 128.632 7.39142 128.591C7.33872 128.549 7.27369 128.527 7.20683 128.528C7.13998 128.528 7.0752 128.551 7.02297 128.593C6.97073 128.634 6.9341 128.692 6.91899 128.758L5.38456 135.593Z" fill="#4C4C4C"/>
<path d="M28.5754 131.555C28.4354 131.689 28.3267 131.928 28.2492 132.272C27.5406 135.423 26.7944 138.66 26.0105 141.983C25.933 142.306 25.8458 142.627 25.7489 142.946C25.7331 142.999 25.7037 143.047 25.6635 143.085C25.6233 143.124 25.5737 143.151 25.5195 143.165C24.9509 143.307 23.1807 143.475 22.9643 142.61C22.5669 141.011 22.344 139.463 21.9338 137.88C21.3911 135.783 20.8947 133.799 20.4446 131.93C20.4015 131.749 20.3089 131.597 20.1668 131.474C20.1366 131.448 20.0995 131.432 20.06 131.427C20.0204 131.421 19.9802 131.428 19.944 131.445C19.9078 131.463 19.8773 131.49 19.8561 131.525C19.8348 131.559 19.8238 131.599 19.8243 131.639C19.9406 135.998 19.9751 139.684 19.9277 142.697C19.9264 142.77 19.9109 142.841 19.8819 142.908C19.8529 142.975 19.8111 143.035 19.7589 143.086C19.7066 143.136 19.645 143.176 19.5775 143.202C19.51 143.228 19.438 143.241 19.3656 143.239L16.9041 143.188C16.4626 143.179 16.2505 142.954 16.2677 142.513C16.4971 136.236 16.2968 129.992 16.3065 123.747C16.3064 123.617 16.354 123.492 16.4404 123.395C16.5268 123.298 16.6458 123.236 16.7749 123.221C17.7181 123.107 18.8778 123.079 20.254 123.137C21.194 123.176 21.2586 123.986 21.4266 124.694C22.3203 128.387 23.2227 132.129 24.1337 135.919C24.1617 136.038 24.2263 136.134 24.3275 136.207C24.4696 136.312 24.5655 136.28 24.615 136.11C25.7327 132.152 26.7352 128.09 27.6225 123.925C27.658 123.755 27.7461 123.6 27.8743 123.483C28.0025 123.366 28.1642 123.292 28.3364 123.273C29.4692 123.143 30.6655 123.119 31.9253 123.198C32.3517 123.226 32.5649 123.453 32.5649 123.88L32.5908 142.713C32.5908 143.032 32.4325 143.204 32.1159 143.23C31.22 143.303 30.3112 143.291 29.3895 143.194C29.088 143.164 28.9372 142.998 28.9372 142.697L28.9243 131.704C28.9243 131.385 28.808 131.336 28.5754 131.555Z" fill="#4C4C4C"/>
<path d="M95.2472 123.644C95.2472 123.574 95.261 123.506 95.2876 123.441C95.3143 123.377 95.3533 123.319 95.4026 123.27C95.4518 123.221 95.5103 123.183 95.5745 123.156C95.6388 123.13 95.7076 123.117 95.777 123.117L102.758 123.143C103.269 123.145 103.776 123.248 104.248 123.445C104.72 123.643 105.148 123.933 105.509 124.297C105.869 124.661 106.155 125.093 106.349 125.568C106.543 126.043 106.642 126.551 106.641 127.065L106.596 139.385C106.592 140.422 106.178 141.415 105.445 142.145C104.712 142.876 103.72 143.285 102.687 143.281L95.7059 143.255C95.5668 143.255 95.4337 143.199 95.3357 143.1C95.2376 143.001 95.1826 142.868 95.1826 142.729L95.2472 123.644ZM98.9299 127.22V139.133C98.9299 139.249 98.9758 139.36 99.0576 139.442C99.1394 139.524 99.2503 139.57 99.366 139.57H101.731C102.059 139.57 102.373 139.428 102.605 139.177C102.837 138.925 102.968 138.584 102.968 138.229V128.124C102.968 127.948 102.936 127.774 102.874 127.611C102.811 127.449 102.72 127.301 102.605 127.176C102.491 127.052 102.354 126.953 102.204 126.886C102.054 126.818 101.893 126.784 101.731 126.784H99.366C99.2503 126.784 99.1394 126.83 99.0576 126.911C98.9758 126.993 98.9299 127.104 98.9299 127.22Z" fill="#4C4C4C"/>
<path d="M127.47 137.36L127.402 142.583C127.398 143.012 127.183 143.226 126.756 143.226L124.285 143.233C124.207 143.233 124.131 143.208 124.069 143.159C124.008 143.111 123.964 143.044 123.946 142.968C123.866 142.634 123.827 142.301 123.83 141.97C123.881 135.541 123.879 129.498 123.823 123.841C123.819 123.358 124.058 123.119 124.54 123.124C126.646 123.143 128.69 123.162 130.672 123.182C133.766 123.211 135.213 124.219 135.252 127.443C135.276 129.256 135.271 131.104 135.236 132.986C135.212 134.388 134.776 135.48 133.928 136.262C133.831 136.352 133.759 136.466 133.721 136.592C133.683 136.718 133.68 136.852 133.711 136.979L135.104 142.706C135.119 142.767 135.12 142.83 135.107 142.892C135.093 142.953 135.066 143.011 135.027 143.06C134.989 143.11 134.939 143.15 134.882 143.177C134.825 143.205 134.763 143.22 134.7 143.22L132.074 143.223C131.946 143.223 131.855 143.165 131.799 143.049C131.588 142.609 131.423 142.146 131.305 141.659C130.951 140.204 130.594 138.75 130.232 137.298C130.22 137.253 130.194 137.213 130.156 137.184C130.119 137.154 130.073 137.138 130.025 137.137L127.7 137.134C127.549 137.134 127.472 137.209 127.47 137.36ZM127.435 127.078L127.415 133.138C127.415 133.253 127.461 133.363 127.542 133.445C127.623 133.527 127.733 133.573 127.848 133.574L130.342 133.584C130.52 133.584 130.696 133.549 130.861 133.48C131.026 133.411 131.176 133.309 131.302 133.181C131.428 133.053 131.529 132.9 131.597 132.732C131.666 132.564 131.702 132.383 131.702 132.201L131.715 128.04C131.716 127.673 131.575 127.321 131.322 127.06C131.069 126.8 130.726 126.653 130.368 126.651L127.874 126.641C127.816 126.641 127.759 126.652 127.706 126.674C127.653 126.695 127.604 126.728 127.564 126.768C127.523 126.809 127.49 126.857 127.468 126.91C127.446 126.963 127.435 127.02 127.435 127.078Z" fill="#4C4C4C"/>
<path d="M45.6415 133.319C46.4685 133.713 47.1081 134.256 47.1372 135.225C47.1781 136.523 47.1824 137.904 47.1501 139.366C47.1156 141.031 46.4577 142.175 45.1763 142.8C44.6229 143.071 43.5095 143.215 41.8361 143.23C39.8441 143.245 38.0447 143.237 36.4382 143.207C35.9859 143.198 35.7619 142.967 35.7662 142.513C35.8416 136.138 35.8384 129.95 35.7566 123.948C35.7479 123.441 36.0031 123.184 36.5222 123.175C38.749 123.141 41.0275 123.153 43.3576 123.211C47.3278 123.308 47.2212 126.47 47.1727 129.423C47.1404 131.213 47.2955 132.401 45.648 133.09C45.4735 133.163 45.4714 133.239 45.6415 133.319ZM39.1323 126.991L39.1452 130.99C39.1452 131.045 39.1561 131.099 39.1773 131.15C39.1984 131.201 39.2294 131.247 39.2684 131.286C39.3075 131.324 39.3538 131.355 39.4047 131.376C39.4556 131.396 39.5102 131.407 39.5652 131.406L42.4014 131.397C42.7427 131.395 43.0693 131.265 43.3097 131.034C43.5501 130.803 43.6847 130.491 43.6839 130.166L43.6774 127.788C43.6771 127.627 43.6432 127.467 43.5779 127.318C43.5125 127.169 43.4169 127.034 43.2966 126.92C43.1763 126.806 43.0335 126.716 42.8766 126.655C42.7197 126.594 42.5516 126.563 42.3821 126.564L39.5458 126.574C39.4358 126.575 39.3307 126.619 39.2532 126.697C39.1758 126.775 39.1323 126.881 39.1323 126.991ZM39.1711 135.406L39.1581 139.347C39.1581 139.459 39.2026 139.567 39.2819 139.647C39.3612 139.727 39.4688 139.772 39.5813 139.773L42.3562 139.783C42.5292 139.784 42.7006 139.754 42.8607 139.694C43.0208 139.635 43.1664 139.548 43.2891 139.437C43.4119 139.327 43.5093 139.195 43.576 139.051C43.6426 138.906 43.6771 138.751 43.6774 138.594L43.6839 136.184C43.6846 135.869 43.5473 135.566 43.302 135.342C43.0568 135.118 42.7236 134.991 42.3756 134.989L39.6007 134.979C39.5444 134.979 39.4886 134.99 39.4365 135.011C39.3844 135.032 39.337 135.063 39.2971 135.103C39.2572 135.143 39.2255 135.19 39.2038 135.242C39.1822 135.294 39.1711 135.349 39.1711 135.406Z" fill="#4C4C4C"/>
<path d="M53.4558 139.402C53.4217 139.457 53.3987 139.518 53.388 139.579C53.1748 140.725 52.9142 141.833 52.6062 142.904C52.5738 143.013 52.5063 143.109 52.4141 143.177C52.322 143.244 52.2102 143.28 52.0958 143.278L49.4728 143.23C49.4147 143.229 49.3576 143.215 49.3058 143.188C49.254 143.162 49.209 143.124 49.174 143.078C49.1391 143.031 49.1153 142.977 49.1044 142.92C49.0934 142.863 49.0957 142.805 49.111 142.748C50.6852 136.908 52.1755 130.964 53.5818 124.917C53.7024 124.404 53.8521 123.943 54.0308 123.534C54.0762 123.431 54.1501 123.343 54.2435 123.281C54.3369 123.22 54.4459 123.186 54.5574 123.185L58.0139 123.147C58.1969 123.145 58.375 123.205 58.5193 123.317C58.6636 123.429 58.7655 123.586 58.8086 123.764L63.5637 142.971C63.5698 142.995 63.5708 143.021 63.5664 143.045C63.5621 143.07 63.5525 143.093 63.5385 143.113C63.5244 143.134 63.5061 143.151 63.4848 143.164C63.4636 143.177 63.4398 143.185 63.4151 143.188C62.4955 143.298 61.5802 143.306 60.6693 143.214C60.5337 143.2 60.4056 143.144 60.3022 143.055C60.1989 142.966 60.1252 142.848 60.091 142.716L59.264 139.525C59.1973 139.26 59.0271 139.126 58.7536 139.124C57.02 139.107 55.3887 139.113 53.8596 139.143C53.7003 139.145 53.5657 139.232 53.4558 139.402ZM54.4734 135.613C54.4632 135.658 54.4635 135.706 54.4742 135.752C54.4849 135.798 54.5058 135.84 54.5352 135.877C54.5647 135.913 54.602 135.943 54.6444 135.963C54.6869 135.983 54.7333 135.994 54.7803 135.994L57.9267 135.984C57.9737 135.984 58.0201 135.973 58.0624 135.952C58.1047 135.932 58.1419 135.902 58.171 135.865C58.2002 135.828 58.2207 135.785 58.2309 135.739C58.2412 135.693 58.241 135.645 58.2303 135.6L56.6345 128.758C56.6185 128.689 56.5797 128.627 56.5242 128.583C56.4688 128.539 56.4001 128.515 56.3292 128.515C56.2584 128.515 56.1897 128.539 56.1343 128.583C56.0788 128.627 56.0399 128.689 56.024 128.758L54.4734 135.613Z" fill="#4C4C4C"/>
<path d="M68.9229 130.321C69.0388 130.464 69.1995 130.572 69.3848 130.631C71.5061 131.305 73.6769 132.001 75.8972 132.718C76.091 132.78 76.2603 132.902 76.3809 133.066C76.5016 133.23 76.5674 133.428 76.5692 133.632C76.5821 135.433 76.5928 137.27 76.6015 139.143C76.6079 140.994 75.8423 142.684 73.8815 143.029C72.4364 143.286 70.7545 143.324 68.8356 143.146C65.405 142.823 65.0367 140.254 65.2887 137.383C65.2992 137.254 65.3573 137.134 65.4518 137.046C65.5462 136.958 65.6701 136.909 65.7991 136.908L68.4609 136.892C68.5485 136.891 68.6332 136.923 68.6974 136.982C68.7617 137.041 68.8008 137.122 68.8066 137.208C68.8486 137.845 68.7839 139.146 69.3977 139.495C70.1149 139.906 71.5653 139.919 72.3277 139.599C72.7261 139.429 72.9371 139.05 72.9608 138.462C72.9996 137.514 73.0114 136.608 72.9964 135.745C72.9944 135.654 72.964 135.567 72.9096 135.494C72.8551 135.422 72.7792 135.368 72.6927 135.341L66.0607 133.219C65.8475 133.151 65.6603 133.019 65.5245 132.841C65.3887 132.663 65.3109 132.447 65.3016 132.224C65.2262 130.462 65.223 128.647 65.2919 126.777C65.3791 124.397 66.8425 123.285 69.1587 123.205C70.2893 123.166 71.3499 123.158 72.3406 123.182C74.4436 123.234 76.2655 123.828 76.5078 126.244C76.6025 127.196 76.6112 128.194 76.5336 129.239C76.5295 129.301 76.5018 129.36 76.4562 129.402C76.4106 129.445 76.3505 129.468 76.2881 129.468L73.4357 129.452C73.33 129.451 73.229 129.409 73.1545 129.335C73.0801 129.26 73.0384 129.16 73.0384 129.055C73.0448 128.17 73.1546 126.884 71.9949 126.677C71.2132 126.538 69.4785 126.37 69.023 127.246C68.658 127.947 68.8098 129.278 68.8227 130.05C68.8249 130.151 68.8582 130.241 68.9229 130.321Z" fill="#4C4C4C"/>
<path d="M83.1139 139.389C82.765 140.555 82.6455 141.844 82.1868 143.003C82.1547 143.085 82.0982 143.155 82.0249 143.204C81.9516 143.253 81.865 143.279 81.7765 143.278L79.1244 143.249C79.0701 143.249 79.0165 143.236 78.9678 143.212C78.9191 143.188 78.8765 143.153 78.8432 143.11C78.8099 143.067 78.7868 143.017 78.7756 142.964C78.7645 142.911 78.7655 142.856 78.7787 142.803L83.5823 123.673C83.6211 123.518 83.7116 123.381 83.8389 123.284C83.9663 123.187 84.123 123.136 84.2833 123.14L87.869 123.224C87.989 123.226 88.1048 123.268 88.1987 123.343C88.2926 123.418 88.3595 123.521 88.3891 123.637L93.2121 142.932C93.2206 142.965 93.2218 142.999 93.2157 143.032C93.2096 143.065 93.1962 143.097 93.1765 143.125C93.1569 143.152 93.1314 143.175 93.1018 143.192C93.0723 143.209 93.0393 143.22 93.0053 143.223C92.0384 143.311 91.1199 143.309 90.2498 143.217C90.1163 143.202 89.9902 143.147 89.8886 143.059C89.787 142.971 89.7147 142.853 89.6813 142.722L88.8317 139.389C88.813 139.317 88.7712 139.254 88.7127 139.209C88.6542 139.164 88.5824 139.14 88.5086 139.14L83.437 139.146C83.2711 139.146 83.1634 139.227 83.1139 139.389ZM84.083 135.661C84.0733 135.702 84.073 135.745 84.0822 135.787C84.0915 135.828 84.1101 135.867 84.1365 135.9C84.1629 135.933 84.1965 135.96 84.2348 135.979C84.2731 135.997 84.3151 136.007 84.3576 136.006L87.5815 135.993C87.6237 135.993 87.6653 135.983 87.7032 135.965C87.7411 135.946 87.7744 135.919 87.8004 135.886C87.8265 135.853 87.8447 135.814 87.8538 135.773C87.8629 135.732 87.8626 135.689 87.8529 135.648L86.2183 128.693C86.2046 128.63 86.1699 128.574 86.12 128.534C86.07 128.494 86.0078 128.472 85.9437 128.472C85.8796 128.472 85.8174 128.494 85.7674 128.534C85.7175 128.574 85.6828 128.63 85.6691 128.693L84.083 135.661Z" fill="#4C4C4C"/>
<path d="M120.677 139.534C120.677 140.499 120.294 141.424 119.611 142.106C118.929 142.788 118.004 143.171 117.039 143.171H112.911C111.946 143.171 111.021 142.788 110.339 142.106C109.657 141.424 109.273 140.499 109.273 139.534V126.806C109.273 125.842 109.657 124.916 110.339 124.234C111.021 123.552 111.946 123.169 112.911 123.169H117.039C118.004 123.169 118.929 123.552 119.611 124.234C120.294 124.916 120.677 125.842 120.677 126.806V139.534ZM117.233 127.934C117.233 127.77 117.201 127.608 117.138 127.456C117.076 127.304 116.984 127.166 116.868 127.05C116.752 126.933 116.614 126.841 116.463 126.778C116.311 126.715 116.149 126.682 115.985 126.682L114.13 126.679C113.966 126.678 113.804 126.711 113.652 126.773C113.5 126.836 113.362 126.927 113.246 127.043C113.129 127.159 113.037 127.297 112.974 127.448C112.911 127.6 112.878 127.763 112.878 127.927L112.86 138.406C112.859 138.57 112.892 138.733 112.954 138.885C113.017 139.036 113.108 139.174 113.224 139.291C113.34 139.407 113.478 139.499 113.629 139.562C113.781 139.625 113.944 139.658 114.108 139.658L115.962 139.662C116.126 139.662 116.289 139.63 116.441 139.567C116.592 139.505 116.73 139.413 116.847 139.297C116.963 139.181 117.055 139.043 117.118 138.892C117.181 138.74 117.214 138.578 117.214 138.414L117.233 127.934Z" fill="#4C4C4C"/>
<path d="M110.976 150.32L110.85 150.995C110.831 151.097 110.78 151.177 110.698 151.238C110.491 151.397 110.267 151.404 110.026 151.257C109.91 151.186 109.877 151.086 109.926 150.957C110.032 150.679 110.223 150.489 110.501 150.388C110.62 150.345 110.685 150.261 110.698 150.136C110.707 150.028 110.726 149.924 110.756 149.823C110.957 149.125 111.241 149.088 111.609 149.713C111.833 150.094 112.113 150.436 112.449 150.737C112.488 150.772 112.519 150.815 112.538 150.864C112.557 150.913 112.564 150.966 112.558 151.018C112.553 151.07 112.535 151.12 112.507 151.164C112.478 151.208 112.44 151.244 112.394 151.27C112.179 151.395 111.968 151.395 111.761 151.27C111.668 151.212 111.621 151.129 111.619 151.021L111.612 150.491C111.61 150.375 111.558 150.289 111.457 150.233C111.371 150.186 111.277 150.161 111.176 150.159C111.129 150.159 111.083 150.174 111.046 150.204C111.01 150.233 110.985 150.275 110.976 150.32Z" fill="#EEBB1E"/>
<path d="M35.4594 151.331C35.5757 151.392 35.6995 151.426 35.8309 151.435C35.9385 151.439 36.0311 151.477 36.1087 151.548C36.156 151.589 36.1765 151.639 36.17 151.7C36.1571 151.818 36.0936 151.892 35.9795 151.923C35.5724 152.03 35.1999 152.03 34.8617 151.923C34.7218 151.877 34.6658 151.782 34.6938 151.635L34.9167 150.501C34.936 150.396 34.9888 150.312 35.075 150.249C35.2709 150.111 35.4884 150.063 35.7275 150.104C36.225 150.188 36.2411 150.328 35.7759 150.524C35.5692 150.61 35.4206 150.748 35.3302 150.937C35.244 151.112 35.2871 151.243 35.4594 151.331Z" fill="#EEBB1E"/>
<path d="M35.0427 156.762C34.9673 155.457 34.9791 154.143 35.0782 152.821C35.0954 152.616 35.2053 152.533 35.4077 152.572L35.679 152.627C35.8535 152.661 35.9407 152.768 35.9407 152.947L35.9342 156.607C35.9342 157.042 36.1528 157.26 36.59 157.262L37.7756 157.269C37.8773 157.269 37.9782 157.25 38.0723 157.211C38.1664 157.172 38.2518 157.115 38.3236 157.043C38.3954 156.972 38.4522 156.886 38.4907 156.792C38.5291 156.699 38.5485 156.598 38.5476 156.497L38.5056 150.727C38.5035 150.46 38.6359 150.334 38.903 150.349L39.184 150.366C39.4575 150.381 39.5867 150.525 39.5717 150.798C39.4834 152.594 39.4521 154.457 39.478 156.387C39.4941 157.53 38.7318 158.167 37.6528 158.154C36.4253 158.143 35.2882 158.121 34.2415 158.086C34.1923 158.085 34.1444 158.07 34.1033 158.043C34.0621 158.016 34.0293 157.978 34.0085 157.933C33.9877 157.889 33.9798 157.839 33.9855 157.79C33.9913 157.741 34.0106 157.695 34.0412 157.656C34.2135 157.439 34.4418 157.289 34.7261 157.207C34.8215 157.18 34.9047 157.121 34.9622 157.04C35.0197 156.959 35.048 156.861 35.0427 156.762Z" fill="#EEBB1E"/>
<path d="M21.5139 157.812C21.5655 159.989 25.2482 159.85 25.2676 157.779C25.2934 155.219 25.2783 152.897 25.2223 150.815C25.221 150.756 25.2315 150.698 25.2533 150.644C25.2751 150.59 25.3076 150.54 25.349 150.499C25.3904 150.457 25.4397 150.425 25.494 150.403C25.5483 150.381 25.6064 150.371 25.6649 150.372L25.8523 150.379C26.1085 150.385 26.2345 150.516 26.2302 150.773C26.1957 153.146 26.1796 155.546 26.1818 157.973C26.1839 158.68 25.8932 159.242 25.3095 159.66C24.3038 160.383 23.2313 160.509 22.0921 160.037C21.1445 159.646 20.6298 158.959 20.548 157.976C20.4489 156.773 20.4898 155.401 20.6707 153.861C20.675 153.833 20.688 153.811 20.7095 153.796C20.9335 153.628 21.1197 153.664 21.2683 153.903C21.3193 153.984 21.3493 154.077 21.3556 154.174C21.4331 155.344 21.4859 156.556 21.5139 157.812Z" fill="#EEBB1E"/>
<path d="M41.6458 150.379L41.284 150.378C41.111 150.378 40.9704 150.518 40.9701 150.691L40.9578 157.778C40.9575 157.951 41.0975 158.092 41.2706 158.092L41.6324 158.093C41.8054 158.093 41.9459 157.953 41.9462 157.78L41.9586 150.693C41.9589 150.519 41.8189 150.379 41.6458 150.379Z" fill="#EEBB1E"/>
<path d="M56.3437 151.483C56.647 151.483 56.8929 151.237 56.8929 150.934C56.8929 150.631 56.647 150.385 56.3437 150.385C56.0405 150.385 55.7946 150.631 55.7946 150.934C55.7946 151.237 56.0405 151.483 56.3437 151.483Z" fill="#F5D358"/>
<path d="M67.7664 156.842C67.7664 157.049 67.8708 157.152 68.0797 157.152L76.0071 157.165C76.1206 157.166 76.2331 157.144 76.3381 157.101C76.4432 157.057 76.5386 156.994 76.6191 156.914C76.6995 156.834 76.7633 156.738 76.8069 156.634C76.8504 156.529 76.8728 156.416 76.8728 156.303L76.8793 150.663C76.8793 150.499 76.9611 150.413 77.1248 150.404L77.7579 150.369C77.8915 150.362 77.9571 150.426 77.955 150.559C77.9442 152.463 77.9324 154.424 77.9195 156.442C77.913 157.443 77.0796 158.157 76.1104 158.154C66.303 158.137 57.1223 158.155 48.5683 158.209C48.4412 158.209 48.3443 158.263 48.2775 158.37C47.7348 159.223 47.6799 159.927 46.5751 160.212C46.4696 160.24 46.3737 160.222 46.2876 160.16C46.111 160.035 46.0249 159.87 46.0292 159.666C46.0293 159.598 46.045 159.531 46.0752 159.47C46.1055 159.409 46.1494 159.356 46.2036 159.314C46.7495 158.897 47.3439 158.499 47.3504 157.734C47.3612 156.185 47.3655 154.6 47.3633 152.979C47.3631 152.882 47.4 152.788 47.4665 152.717C47.533 152.645 47.6242 152.602 47.7219 152.594L47.8446 152.588C48.2 152.562 48.3755 152.727 48.3712 153.082L48.3163 156.849C48.312 157.111 48.4412 157.239 48.7039 157.23L50.7649 157.159C50.948 157.152 51.0395 157.058 51.0395 156.875V153.008C51.0395 152.79 51.1472 152.682 51.3625 152.682H51.7146C51.9257 152.682 52.0312 152.786 52.0312 152.995L52.0538 156.707C52.056 157.066 52.238 157.241 52.5998 157.23L53.3815 157.204C53.7519 157.193 53.9199 157.003 53.8855 156.632C53.6916 154.613 54.0437 152.465 56.6765 152.694C58.9442 152.895 58.9733 155.001 58.8182 156.739C58.8133 156.793 58.8197 156.848 58.8371 156.899C58.8546 156.951 58.8826 156.998 58.9194 157.039C58.9562 157.079 59.0009 157.111 59.0508 157.133C59.1007 157.154 59.1546 157.166 59.2091 157.165L61.2927 157.162C61.5533 157.162 61.676 157.032 61.661 156.771C61.5942 155.488 61.6028 154.168 61.6868 152.811C61.6976 152.649 61.7826 152.568 61.942 152.568L62.3943 152.565C62.5881 152.563 62.685 152.659 62.685 152.853L62.6947 156.804C62.6947 157.083 62.8347 157.216 63.1146 157.201L63.7736 157.169C64.0148 157.156 64.1365 157.029 64.1387 156.787L64.1839 152.882C64.1882 152.598 64.3303 152.467 64.6103 152.491L64.8203 152.507C65.1002 152.531 65.2391 152.682 65.237 152.959L65.2338 156.881C65.2329 156.945 65.2548 157.006 65.2956 157.055C65.3364 157.104 65.3935 157.138 65.4567 157.149C65.8055 157.212 66.149 157.214 66.4872 157.156C66.6422 157.128 66.7197 157.035 66.7197 156.878L66.7004 152.869C66.7002 152.775 66.7359 152.685 66.8001 152.616C66.8644 152.548 66.9523 152.506 67.046 152.501L67.2204 152.491C67.5801 152.467 67.7599 152.635 67.7599 152.995L67.7664 156.842ZM55.2099 157.181L57.4647 157.188C57.5558 157.188 57.6433 157.152 57.708 157.088C57.7727 157.024 57.8095 156.937 57.8104 156.846L57.8168 155.295C57.8177 155.08 57.7816 154.867 57.7105 154.668C57.6394 154.468 57.5347 154.287 57.4024 154.135C57.2701 153.982 57.1128 153.861 56.9395 153.778C56.7662 153.695 56.5802 153.651 56.3922 153.651H56.3082C55.9288 153.649 55.5642 153.82 55.2946 154.126C55.025 154.432 54.8726 154.848 54.8707 155.282L54.8643 156.833C54.8638 156.878 54.8725 156.924 54.8896 156.966C54.9068 157.008 54.9322 157.047 54.9643 157.079C54.9965 157.112 55.0347 157.137 55.0769 157.155C55.119 157.172 55.1642 157.181 55.2099 157.181Z" fill="#F5D358"/>
<path d="M79.9458 150.393L79.3514 150.39C79.2337 150.389 79.1377 150.484 79.1371 150.602L79.0988 157.922C79.0982 158.04 79.1931 158.136 79.3109 158.136L79.9052 158.139C80.023 158.14 80.1189 158.045 80.1196 157.927L80.1579 150.607C80.1585 150.489 80.0635 150.394 79.9458 150.393Z" fill="#F5D358"/>
<path d="M86.2442 151.448C86.5278 151.448 86.7578 151.218 86.7578 150.934C86.7578 150.65 86.5278 150.42 86.2442 150.42C85.9605 150.42 85.7305 150.65 85.7305 150.934C85.7305 151.218 85.9605 151.448 86.2442 151.448Z" fill="#F5D358"/>
<path d="M87.9078 151.415C88.1843 151.415 88.4085 151.191 88.4085 150.915C88.4085 150.638 88.1843 150.414 87.9078 150.414C87.6312 150.414 87.407 150.638 87.407 150.915C87.407 151.191 87.6312 151.415 87.9078 151.415Z" fill="#F5D358"/>
<path d="M96.436 152.307C96.4108 152.341 96.3956 152.382 96.3922 152.424C96.3889 152.467 96.3974 152.509 96.4168 152.547C96.4363 152.585 96.4659 152.617 96.5024 152.639C96.5388 152.661 96.5807 152.672 96.6233 152.672C99.1915 152.63 99.9215 153.828 99.7374 156.283C99.634 157.682 98.8038 158.173 97.5569 158.163C94.4687 158.131 91.6421 158.13 89.0772 158.16C88.9463 158.162 88.8201 158.112 88.7257 158.02C88.6314 157.929 88.5766 157.804 88.5732 157.672C88.5517 156.8 88.5258 155.933 88.4957 155.072C88.444 153.489 86.2893 153.092 85.7434 154.533C85.5345 155.084 85.4968 155.806 85.6303 156.7C85.6476 156.812 85.7036 156.898 85.7983 156.959C86.1386 157.174 86.5478 157.239 87.0259 157.152C87.3748 157.09 87.547 157.235 87.5427 157.588V157.734C87.5406 158.016 87.3984 158.167 87.1163 158.186C85.737 158.273 84.5772 157.863 84.5514 156.216C84.5385 155.343 84.4319 154.481 84.9907 153.731C86.0212 152.352 87.9465 152.265 89.019 153.57C89.7265 154.426 89.5649 155.831 89.5714 156.875C89.5714 156.92 89.5805 156.965 89.5981 157.007C89.6157 157.049 89.6415 157.087 89.674 157.119C89.7065 157.151 89.745 157.176 89.7873 157.193C89.8296 157.21 89.8748 157.218 89.9203 157.217C92.005 157.167 94.0616 157.176 96.0903 157.243C96.7321 157.262 97.404 157.23 98.1061 157.146C98.2309 157.131 98.3473 157.076 98.4368 156.988C98.5263 156.9 98.5839 156.785 98.6003 156.661C98.7941 155.237 98.8717 153.838 97.0142 153.644C96.2346 153.562 95.4701 153.646 94.7206 153.896C94.613 153.931 94.5107 153.918 94.4137 153.857C94.2328 153.741 94.1079 153.573 94.039 153.353C93.9916 153.205 94.025 153.079 94.1392 152.976L96.6427 150.685C96.8667 150.478 97.0917 150.477 97.3179 150.682L97.4955 150.84C97.6807 151.006 97.6721 151.162 97.4697 151.309C97.0519 151.61 96.7073 151.943 96.436 152.307Z" fill="#F5D358"/>
<path d="M108.214 156.855L108.262 153.101C108.267 152.817 108.403 152.633 108.673 152.549C108.744 152.527 108.815 152.522 108.886 152.533C109.037 152.554 109.113 152.642 109.115 152.795L109.173 156.823C109.18 157.137 109.339 157.3 109.651 157.311L110.22 157.33C110.545 157.341 110.709 157.184 110.711 156.858L110.734 153.253C110.736 152.941 110.882 152.728 111.173 152.614C111.253 152.583 111.34 152.573 111.435 152.581C111.628 152.603 111.725 152.712 111.725 152.908L111.732 156.778C111.732 157.137 111.912 157.306 112.271 157.285L112.568 157.269C112.984 157.243 113.197 157.023 113.208 156.61L113.324 152.72C113.329 152.541 113.418 152.476 113.593 152.523L113.751 152.565C113.955 152.623 114.071 152.758 114.096 152.969C114.249 154.248 114.285 155.373 114.203 156.345C114.1 157.534 113.415 158.123 112.149 158.112C108.584 158.079 105.562 158.101 103.081 158.176C102.96 158.179 102.873 158.233 102.819 158.341C102.37 159.2 101.992 159.866 101.036 160.247C100.92 160.292 100.819 160.269 100.732 160.176C100.603 160.036 100.54 159.873 100.542 159.688C100.555 159.12 101.802 158.719 101.847 157.899C101.939 156.255 101.948 154.635 101.873 153.037C101.86 152.763 101.99 152.628 102.264 152.63L102.364 152.633C102.667 152.633 102.818 152.785 102.816 153.089L102.797 156.878C102.794 157.123 102.917 157.247 103.165 157.249L107.797 157.265C108.071 157.265 108.21 157.129 108.214 156.855Z" fill="#EEBB1E"/>
<path d="M31.1662 158.257C29.2377 158.196 27.6613 158.338 27.5514 155.902C27.503 154.772 27.7776 153.929 28.6788 153.15C29.6996 152.265 31.4505 152.669 32.1127 153.754C32.8686 154.995 32.607 156.781 32.4907 158.173C32.3259 160.115 30.223 160.712 28.5722 160.218C28.5309 160.205 28.4936 160.182 28.4641 160.149C28.4346 160.117 28.414 160.077 28.4043 160.034C28.3827 159.941 28.3903 159.86 28.4269 159.788C28.5604 159.528 28.779 159.409 29.0826 159.433C29.8935 159.498 30.9563 159.381 31.3536 158.574C31.4548 158.369 31.3924 158.264 31.1662 158.257ZM29.1343 157.207L30.8723 157.233C30.9639 157.235 31.055 157.219 31.1403 157.185C31.2256 157.152 31.3035 157.102 31.3695 157.038C31.4355 156.974 31.4883 156.898 31.5249 156.814C31.5616 156.73 31.5813 156.64 31.583 156.548L31.5991 155.469C31.6031 155.229 31.5675 154.991 31.4943 154.767C31.4211 154.544 31.3118 154.341 31.1726 154.168C31.0334 153.996 30.867 153.859 30.683 153.764C30.499 153.669 30.301 153.618 30.1002 153.615H30.0227C29.6176 153.609 29.2261 153.795 28.9341 154.133C28.6421 154.471 28.4736 154.933 28.4656 155.418L28.4495 156.497C28.4478 156.588 28.4641 156.679 28.4976 156.765C28.5311 156.85 28.5811 156.928 28.6447 156.994C28.7083 157.06 28.7843 157.113 28.8683 157.149C28.9523 157.186 29.0427 157.206 29.1343 157.207Z" fill="#EEBB1E"/>
<path d="M51.4691 160.354C51.7225 160.354 51.9279 160.149 51.9279 159.895C51.9279 159.642 51.7225 159.437 51.4691 159.437C51.2158 159.437 51.0104 159.642 51.0104 159.895C51.0104 160.149 51.2158 160.354 51.4691 160.354Z" fill="#EEBB1E"/>
<path d="M50.0256 160.194C50.2343 160.101 50.3381 159.879 50.2575 159.698C50.177 159.517 49.9426 159.445 49.7339 159.538C49.5253 159.631 49.4215 159.853 49.502 160.034C49.5826 160.215 49.817 160.286 50.0256 160.194Z" fill="#EEBB1E"/>
<path d="M55.155 169.932C55.1421 169.262 55.1108 168.645 55.0613 168.081C54.9611 166.931 53.3653 167.157 52.6159 167.467C52.4673 167.53 52.3456 167.496 52.2509 167.367C52.1927 167.285 52.1539 167.194 52.1346 167.093C52.0936 166.862 52.1841 166.705 52.4059 166.621C53.8564 166.085 55.7106 166.169 55.927 168.104C55.9895 168.664 55.9949 169.258 55.9432 169.887C55.9401 169.922 55.9444 169.958 55.956 169.992C55.9675 170.026 55.986 170.057 56.0103 170.083C56.0345 170.11 56.0641 170.131 56.097 170.145C56.1299 170.16 56.1655 170.168 56.2016 170.168L57.8459 170.191C58.0397 170.193 58.1377 170.097 58.1398 169.903L58.1495 166.692C58.1495 166.606 58.1835 166.524 58.2439 166.462C58.3044 166.401 58.3866 166.367 58.4726 166.366H58.6276C58.715 166.366 58.7988 166.4 58.8606 166.461C58.9224 166.523 58.9571 166.606 58.9571 166.692L58.9636 169.703C58.9657 170.03 59.1305 170.193 59.4578 170.191L59.9585 170.184C60.4216 170.18 60.6542 169.947 60.6563 169.486L60.6983 164.786C60.7004 164.597 60.7963 164.505 60.9858 164.512L61.199 164.518C61.4122 164.524 61.522 164.635 61.5285 164.851C61.5694 166.83 61.5565 168.438 61.4897 169.674C61.4381 170.61 60.6401 170.956 59.8164 170.969C56.3061 171.019 53.4429 171.014 51.2268 170.956C50.0962 170.926 49.5309 170.332 49.5309 169.173C49.5352 167.752 49.5578 166.285 49.5987 164.773C49.603 164.616 49.6838 164.531 49.841 164.518C49.9314 164.512 50.0219 164.52 50.1124 164.544C50.192 164.565 50.2624 164.612 50.3127 164.678C50.3629 164.743 50.3901 164.823 50.3902 164.906L50.3966 169.687C50.3966 169.815 50.4477 169.938 50.5385 170.029C50.6294 170.12 50.7527 170.171 50.8812 170.171L54.9224 170.168C55.0796 170.168 55.1571 170.089 55.155 169.932Z" fill="#4C4C4C"/>
<path d="M58.5372 165.419C58.7745 165.419 58.9668 165.226 58.9668 164.989C58.9668 164.752 58.7745 164.56 58.5372 164.56C58.2999 164.56 58.1075 164.752 58.1075 164.989C58.1075 165.226 58.2999 165.419 58.5372 165.419Z" fill="#4C4C4C"/>
<path d="M63.1607 164.511L62.9992 164.512C62.81 164.512 62.657 164.666 62.6573 164.855L62.6675 170.656C62.6678 170.845 62.8214 170.999 63.0105 170.998L63.172 170.998C63.3611 170.998 63.5141 170.844 63.5138 170.655L63.5037 164.853C63.5034 164.664 63.3498 164.511 63.1607 164.511Z" fill="#4C4C4C"/>
<path d="M68.1559 165.361C68.3987 165.439 68.6511 165.331 68.7196 165.118C68.7881 164.906 68.6469 164.671 68.4041 164.592C68.1613 164.514 67.909 164.622 67.8404 164.834C67.7719 165.047 67.9131 165.282 68.1559 165.361Z" fill="#4C4C4C"/>
<path d="M69.4569 165.272C69.6612 165.425 69.9334 165.406 70.0648 165.23C70.1963 165.055 70.1372 164.788 69.9329 164.636C69.7287 164.483 69.4565 164.501 69.325 164.677C69.1936 164.853 69.2526 165.119 69.4569 165.272Z" fill="#4C4C4C"/>
<path d="M74.673 169.745C74.6751 170.016 74.8129 170.155 75.0864 170.161L76.02 170.184C76.5433 170.197 76.8039 169.941 76.8018 169.415L76.7792 164.912C76.777 164.619 76.9213 164.486 77.212 164.511L77.3574 164.528C77.5534 164.545 77.6524 164.652 77.6546 164.851C77.6567 166.397 77.6557 167.825 77.6514 169.134C77.6449 170.325 77.0656 170.929 75.9134 170.946C75.1144 170.957 74.2508 170.959 73.3227 170.953C73.1073 170.951 72.991 170.843 72.9738 170.63L72.9641 170.513C72.9605 170.475 72.9649 170.436 72.977 170.399C72.9891 170.362 73.0086 170.328 73.0343 170.299C73.0601 170.27 73.0915 170.247 73.1266 170.23C73.1617 170.214 73.1999 170.205 73.2387 170.203C73.4002 170.199 73.5531 170.166 73.6974 170.103C73.7292 170.089 73.7564 170.066 73.7758 170.037C73.7952 170.007 73.8061 169.973 73.8072 169.938L73.8557 166.566C73.8578 166.402 73.9407 166.319 74.1044 166.317L74.4501 166.314C74.5052 166.314 74.5581 166.336 74.5974 166.374C74.6367 166.413 74.6592 166.466 74.66 166.521L74.673 169.745Z" fill="#4C4C4C"/>
<path d="M83.2496 166.308C84.2542 166.43 85.5819 166.66 85.8726 167.842C86.1634 169.031 86.1698 170.849 84.532 170.882C83.3411 170.903 82.0672 170.919 80.7105 170.93C79.6671 170.937 78.7303 170.581 78.7238 169.373C78.7152 167.95 78.7173 166.441 78.7303 164.847C78.7303 164.63 78.8379 164.531 79.0533 164.55L79.2051 164.563C79.288 164.57 79.3653 164.608 79.422 164.67C79.4787 164.731 79.5108 164.812 79.512 164.896L79.5475 169.58C79.548 169.661 79.5644 169.742 79.596 169.817C79.6275 169.892 79.6736 169.96 79.7315 170.018C79.7894 170.075 79.858 170.12 79.9334 170.151C80.0088 170.182 80.0896 170.197 80.171 170.197L84.1476 170.178C84.9035 170.173 85.2545 169.794 85.2007 169.04L85.1652 168.546C85.1027 167.693 84.6451 167.245 83.7923 167.202C83.0622 167.166 82.3827 167.25 81.7539 167.454C81.6354 167.491 81.5418 167.458 81.4728 167.354C81.2747 167.055 81.307 166.78 81.5698 166.53C82.1642 165.962 82.7833 165.379 83.4272 164.783C83.6038 164.617 83.7944 164.599 83.999 164.728L84.1444 164.818C84.3447 164.943 84.3533 165.08 84.1702 165.229L83.1753 166.046C82.9944 166.192 83.0191 166.28 83.2496 166.308Z" fill="#4C4C4C"/>
<path d="M93.6578 169.754C93.6557 170.034 93.7946 170.174 94.0746 170.174L94.7691 170.178C95.1783 170.18 95.3829 169.975 95.3829 169.564L95.3796 164.857C95.3796 164.655 95.4809 164.543 95.6833 164.521C95.7285 164.517 95.7727 164.516 95.8157 164.518C96.072 164.529 96.2001 164.662 96.2001 164.918L96.1904 169.551C96.1905 169.904 96.051 170.243 95.8024 170.494C95.5538 170.745 95.2161 170.888 94.8628 170.891L91.3869 170.93C91.3328 170.93 91.2802 170.948 91.237 170.981C91.1939 171.013 91.1626 171.059 91.1478 171.111C90.9949 171.639 90.701 172.062 90.2659 172.381C89.6619 172.823 88.8123 172.717 88.108 172.717C87.9142 172.717 87.8195 172.62 87.8238 172.426L87.827 172.326C87.8279 172.269 87.8509 172.216 87.8913 172.176C87.9317 172.136 87.9863 172.113 88.0434 172.113L88.8252 172.103C88.8338 172.103 88.8424 172.103 88.851 172.103C89.5983 172.034 90.0495 171.805 90.2046 171.415C90.3316 171.1 90.225 170.951 89.8848 170.966C88.6734 171.027 87.1938 171.114 87.0743 169.473C87.0194 168.685 87 167.784 87.5686 167.17C88.219 166.472 88.9447 166.25 89.7459 166.505C91.1931 166.963 91.3578 168.527 91.2124 169.851C91.1909 170.054 91.2803 170.159 91.4806 170.168L92.6273 170.22C92.7759 170.226 92.8502 170.156 92.8502 170.01V164.912C92.8502 164.808 92.8912 164.708 92.9643 164.633C93.0375 164.559 93.1369 164.516 93.2411 164.515H93.3606C93.5803 164.513 93.6891 164.621 93.6869 164.841L93.6578 169.754ZM88.4052 170.181L89.9235 170.174C90.0635 170.173 90.1974 170.117 90.296 170.018C90.3947 169.919 90.4501 169.784 90.4501 169.645L90.4468 168.756C90.4462 168.549 90.4141 168.343 90.3524 168.151C90.2907 167.96 90.2005 167.786 90.0871 167.639C89.9737 167.493 89.8393 167.377 89.6915 167.298C89.5437 167.219 89.3854 167.179 89.2258 167.18H89.0772C88.7553 167.181 88.4473 167.349 88.2208 167.645C87.9943 167.942 87.8677 168.344 87.869 168.763L87.8722 169.651C87.8722 169.721 87.886 169.79 87.9129 169.854C87.9397 169.919 87.979 169.978 88.0285 170.027C88.0781 170.076 88.1369 170.115 88.2015 170.141C88.2662 170.168 88.3354 170.181 88.4052 170.181Z" fill="#4C4C4C"/>
<path d="M40.011 165.412C40.2322 165.412 40.4115 165.233 40.4115 165.012C40.4115 164.791 40.2322 164.611 40.011 164.611C39.7898 164.611 39.6104 164.791 39.6104 165.012C39.6104 165.233 39.7898 165.412 40.011 165.412Z" fill="#4C4C4C"/>
<path d="M41.3677 165.387C41.5961 165.387 41.7812 165.201 41.7812 164.973C41.7812 164.745 41.5961 164.56 41.3677 164.56C41.1394 164.56 40.9543 164.745 40.9543 164.973C40.9543 165.201 41.1394 165.387 41.3677 165.387Z" fill="#4C4C4C"/>
<path d="M57.1384 165.387C57.3615 165.387 57.5422 165.206 57.5422 164.983C57.5422 164.76 57.3615 164.579 57.1384 164.579C56.9154 164.579 56.7346 164.76 56.7346 164.983C56.7346 165.206 56.9154 165.387 57.1384 165.387Z" fill="#4C4C4C"/>
<path d="M70.3636 170.168C70.5533 170.162 70.7332 170.082 70.8653 169.946C70.9973 169.81 71.0711 169.627 71.0711 169.438L71.0807 166.527C71.0807 166.314 71.1863 166.22 71.3973 166.246L71.6751 166.278C71.8517 166.3 71.9389 166.399 71.9368 166.575C71.9346 167.249 71.9486 167.972 71.9788 168.743C72.0822 171.279 70.4185 170.943 68.616 170.995C66.2869 171.062 65.8992 169.266 66.1318 167.38C66.1447 167.274 66.2007 167.202 66.2998 167.163C66.4656 167.097 66.6217 167.108 66.7682 167.199C66.8845 167.272 66.9416 167.377 66.9394 167.512C66.9168 168.653 66.7197 170.058 68.3414 170.145C69.0176 170.182 69.6917 170.189 70.3636 170.168Z" fill="#4C4C4C"/>
<path d="M42.7084 169.712C42.676 170.014 42.8117 170.165 43.1154 170.168L44.2169 170.171C44.6261 170.173 44.8329 169.969 44.8372 169.56L44.8695 166.692C44.8716 166.509 44.9632 166.399 45.1441 166.362L45.3185 166.33C45.5123 166.291 45.6135 166.37 45.6221 166.566C45.6674 167.455 45.6954 168.334 45.7061 169.202C45.7212 170.324 45.1742 170.914 44.0651 170.972C43.4513 171.002 42.7934 171.013 42.0913 171.004C42.0618 171.004 42.0326 170.997 42.0056 170.985C41.9786 170.973 41.9544 170.956 41.9344 170.934C41.9145 170.912 41.8992 170.887 41.8895 170.859C41.8798 170.831 41.8759 170.801 41.8781 170.772C41.9589 169.635 42.3207 166.979 40.4051 167.254C39.4489 167.389 39.3617 168.682 39.4004 169.421C39.4349 170.02 39.8215 170.268 40.5601 170.164C40.6147 170.156 40.6707 170.16 40.7242 170.176C40.7777 170.191 40.8275 170.218 40.8703 170.255C41.0124 170.375 41.0749 170.507 41.0576 170.649C41.0483 170.721 41.0153 170.788 40.9639 170.839C40.9124 170.891 40.8455 170.924 40.7734 170.933C39.3886 171.114 38.6585 170.513 38.5832 169.131C38.5121 167.81 38.9396 166.939 39.8656 166.517C40.4212 166.265 40.9629 166.278 41.4905 166.556C42.7633 167.225 42.844 168.446 42.7084 169.712Z" fill="#4C4C4C"/>
<path d="M46.6526 171.925C47.2309 171.615 47.5442 171.049 47.5539 170.397C47.5668 169.184 47.569 167.904 47.5604 166.556C47.5604 166.373 47.6519 166.283 47.8349 166.288H47.9545C48.2129 166.292 48.3497 166.422 48.3647 166.679C48.4681 168.417 48.4681 169.773 48.3647 170.749C48.2764 171.561 47.7757 172.197 46.8626 172.658C46.8309 172.674 46.796 172.683 46.7604 172.684C46.7248 172.685 46.6894 172.678 46.6565 172.664C46.6236 172.65 46.5941 172.629 46.57 172.602C46.546 172.575 46.5278 172.544 46.517 172.509L46.4717 172.361C46.4465 172.278 46.4508 172.189 46.4838 172.11C46.5169 172.03 46.5766 171.965 46.6526 171.925Z" fill="#4C4C4C"/>
<path d="M44.0488 172.683C44.2121 172.588 44.2736 172.389 44.1863 172.24C44.099 172.091 43.8959 172.047 43.7326 172.142C43.5693 172.238 43.5077 172.436 43.595 172.585C43.6824 172.735 43.8855 172.779 44.0488 172.683Z" fill="#4C4C4C"/>
<path d="M45.1398 172.716C45.3297 172.778 45.5304 172.685 45.5881 172.509C45.6457 172.333 45.5385 172.139 45.3485 172.077C45.1586 172.015 44.9579 172.108 44.9003 172.284C44.8426 172.461 44.9499 172.654 45.1398 172.716Z" fill="#4C4C4C"/>
</svg>
