<svg width="407" height="355" viewBox="0 0 407 355" fill="none" xmlns="http://www.w3.org/2000/svg">
<path d="M191.32 8.53994C192.57 6.28994 193.91 0.589943 196.92 0.429943C201.72 0.17661 206.297 0.159943 210.65 0.379943C211.129 0.403923 211.593 0.554597 211.993 0.81647C212.394 1.07834 212.717 1.44196 212.93 1.86994C216.363 8.84328 220.59 16.8399 225.61 25.8599C271.83 108.987 314.447 186.037 353.46 257.01C365.967 279.77 377.68 300.82 388.6 320.16C394.293 330.233 399.863 340.233 405.31 350.16C405.943 351.313 406.49 352.567 406.95 353.92C406.972 353.983 406.979 354.051 406.972 354.117C406.965 354.184 406.943 354.247 406.909 354.304C406.874 354.36 406.828 354.408 406.773 354.444C406.717 354.48 406.655 354.502 406.59 354.51C405.017 354.723 403.523 354.83 402.11 354.83C372.997 354.857 344.313 354.823 316.06 354.73C315.578 354.726 315.106 354.595 314.695 354.348C314.283 354.102 313.946 353.75 313.72 353.33C304.667 336.617 295.513 319.997 286.26 303.47C277.187 287.27 268.08 270.87 258.94 254.27C242.5 224.43 225.85 194.197 208.99 163.57C192.07 132.82 174.65 102.32 157.42 71.6099C157.233 71.2805 157.135 70.9076 157.135 70.5275C157.135 70.1474 157.233 69.7728 157.42 69.4399C168.813 49.0333 180.113 28.7333 191.32 8.53994Z" fill="#E0E0E0"/>
<path d="M172.09 211.17C146.73 257.037 120.847 303.88 94.44 351.7C92.61 355.02 90.13 354.75 86.78 354.76C59.5666 354.853 31.4033 354.837 2.28998 354.71C1.80331 354.71 1.32331 354.643 0.849977 354.51C0.75675 354.484 0.671419 354.436 0.600385 354.369C0.529351 354.303 0.474455 354.219 0.439818 354.125C0.405181 354.03 0.391701 353.928 0.400388 353.825C0.409074 353.722 0.439703 353.621 0.489976 353.53L125.97 126.73C126.383 125.983 126.793 125.987 127.2 126.74C140.74 151.98 154.603 176.743 168.79 201.03C170.103 203.283 171.26 205.587 172.26 207.94C172.478 208.454 172.576 209.012 172.546 209.571C172.517 210.131 172.361 210.677 172.09 211.17Z" fill="#E0E0E0"/>
</svg>
